<?xml version="1.0" encoding="UTF-8" standalone="no"?>
<svg
   xmlns:dc="http://purl.org/dc/elements/1.1/"
   xmlns:cc="http://creativecommons.org/ns#"
   xmlns:rdf="http://www.w3.org/1999/02/22-rdf-syntax-ns#"
   xmlns:svg="http://www.w3.org/2000/svg"
   xmlns="http://www.w3.org/2000/svg"
   xmlns:sodipodi="http://sodipodi.sourceforge.net/DTD/sodipodi-0.dtd"
   xmlns:inkscape="http://www.inkscape.org/namespaces/inkscape"
   width="400"
   height="400"
   version="1.1"
   id="svg4"
   sodipodi:docname="lagunalink_logo.svg"
   inkscape:version="0.92.5 (2060ec1f9f, 2020-04-08)">
  <metadata
     id="metadata10">
    <rdf:RDF>
      <cc:Work
         rdf:about="">
        <dc:format>image/svg+xml</dc:format>
        <dc:type
           rdf:resource="http://purl.org/dc/dcmitype/StillImage" />
        <dc:title></dc:title>
      </cc:Work>
    </rdf:RDF>
  </metadata>
  <defs
     id="defs8" />
  <sodipodi:namedview
     pagecolor="#ffffff"
     bordercolor="#666666"
     borderopacity="1"
     objecttolerance="10"
     gridtolerance="10"
     guidetolerance="10"
     inkscape:pageopacity="0"
     inkscape:pageshadow="2"
     inkscape:window-width="1920"
     inkscape:window-height="1026"
     id="namedview6"
     showgrid="false"
     inkscape:zoom="1.18"
     inkscape:cx="-52.355219"
     inkscape:cy="187.15062"
     inkscape:window-x="0"
     inkscape:window-y="0"
     inkscape:window-maximized="1"
     inkscape:current-layer="g4597" />
  <g
     id="g4597">
    <g
       id="g4610">
      <g
         transform="matrix(0.88582347,0,0,0.99248295,8.4725334,-2.1650741)"
         id="g4563">
        <rect
           ry="0"
           y="35.209961"
           x="56.680904"
           height="319.38556"
           width="48.54269"
           id="rect4544"
           style="opacity:1;fill:#0a92d6;fill-opacity:1;stroke-width:0.85433853" />
        <rect
           transform="rotate(90)"
           ry="0"
           y="-375.79446"
           x="324.88123"
           height="319.16086"
           width="48.54269"
           id="rect4544-3"
           style="opacity:1;fill:#0a92d6;fill-opacity:1;stroke-width:0.85403794" />
      </g>
      <g
         id="g4588"
         transform="translate(-20)">
        <path
           sodipodi:nodetypes="ccccccccccccccccccccscccccccccccccccccc"
           inkscape:connector-curvature="0"
           id="path895"
           d="M 158.74814,34.070821 V 161.99665 c 8.22746,-0.67994 15.94,3.25484 22.26292,8.15401 5.35958,2.86555 11.74703,0.62443 17.02236,-1.31944 6.72004,-4.14625 14.12934,0.41099 19.80087,4.17184 8.00512,2.36542 16.74888,1.75856 24.53816,-1.07106 7.2109,-1.75726 14.97818,-2.75277 21.91846,0.62388 4.45886,-0.0186 3.38457,3.62401 1.0076,5.93183 -1.12092,3.78179 -3.61247,3.41916 -6.77947,1.99294 -6.55436,-1.82027 -13.6149,-1.73208 -19.78927,1.30527 -6.63091,3.01709 -14.06224,0.78819 -20.61382,-1.32835 -5.88684,-3.37539 -12.60151,-6.94066 -19.54786,-4.49035 -6.59546,1.05889 -13.01645,3.39071 -19.79449,2.41562 -6.96114,-1.20683 -12.84701,-6.28501 -20.02546,-6.49155 V 190.856 c 6.0704,0.14771 12.05962,1.28886 18.17548,0.82456 h 107.15656 c -0.21092,12.63606 0.42331,25.32775 -0.32075,37.92943 -0.89135,13.29826 -8.92189,26.0466 -21.11763,31.76838 -6.29964,3.44969 -13.8452,4.83947 -20.96363,4.26384 -19.71174,-2.17706 -37.84417,-21.28058 -37.84513,-41.11247 l -3.6e-4,-7.28804 h -45.08454 c -0.3376,10.39379 0.54789,20.78187 3.2043,30.85009 1.77122,7.42834 4.77151,14.61244 8.45505,21.28596 7.4375,13.55106 18.64249,24.94902 32.04195,32.60985 6.41764,3.13628 12.77236,6.94135 19.78927,8.47476 7.04552,2.06403 14.27607,3.84669 21.70424,3.25203 10.21299,0.34291 20.65203,-0.0829 30.2426,-3.93971 5.32536,-0.62556 9.73198,-3.78086 14.54269,-5.93461 14.40442,-7.27127 26.61652,-18.78828 34.56168,-32.85497 4.60411,-7.07754 7.69428,-15.06497 9.57659,-23.23494 1.77665,-6.73061 2.32302,-13.69424 2.6567,-20.61383 1.14755,-10.22129 0.1872,-20.61813 0.50381,-30.90725 V 143.03193 H 325.10425 207.39676 L 207.29083,34.087437 c -16.05458,0.09297 -32.327,-0.01642 -48.54269,-0.01662 z"
           style="fill:#0a92d6;stroke:none;stroke-width:0.82455295" />
        <ellipse
           ry="36.440678"
           rx="35.59322"
           cy="67.988884"
           cx="304.66101"
           id="path4565"
           style="opacity:1;fill:#0a92d6;fill-opacity:1" />
      </g>
    </g>
  </g>
</svg>
